<?xml version="1.0" encoding="utf-8"?>
<!-- Generator: Adobe Illustrator 25.2.1, SVG Export Plug-In . SVG Version: 6.00 Build 0)  -->
<svg version="1.1" id="Layer_1" xmlns="http://www.w3.org/2000/svg" xmlns:xlink="http://www.w3.org/1999/xlink" x="0px" y="0px"
	 viewBox="0 0 200 200" style="enable-background:new 0 0 200 200;" xml:space="preserve">
<style type="text/css">
	.st0{fill:#CC0000;}
</style>
<g>
	<path class="st0" d="M96.1,110.3c-2.3,0-3.7,1.2-3.7,4.5v24.8c0,3.3,1.4,4.5,3.7,4.5c2.3,0,3.7-1.2,3.7-4.5v-24.8
		C99.8,111.5,98.4,110.3,96.1,110.3z"/>
	<path class="st0" d="M79,56.3v-2.6c0-3.3-1.1-4.7-3.7-4.7h-3.5v12.1h2.8C77.3,61.2,79,60,79,56.3z"/>
	<path class="st0" d="M75,67.7h-3.2v14.1h4.1c2.4,0,3.7-1.1,3.7-4.5v-4C79.7,69.1,78.3,67.7,75,67.7z"/>
	<path class="st0" d="M101.1,10.2c-49.6,0-89.8,40.2-89.8,89.8s40.2,89.8,89.8,89.8S191,149.6,191,100S150.7,10.2,101.1,10.2z
		 M122.5,42.5l5.5,20.9l5.5-20.9h6.9l-9.1,30.7v15.2H124V73.2l-9.1-30.7H122.5z M80.5,150.1h-7.4l-9-33.2v33.2h-6.5v-45.9h9
		l7.4,27.5v-27.5h6.4V150.1z M75.9,88.4H64.6V42.5h10.9c7.5,0,10.7,3.5,10.7,10.6v1.6c0,4.7-1.4,7.7-4.7,9.2c3.9,1.5,5.4,5,5.4,9.8
		v3.7C86.9,84.6,83.2,88.4,75.9,88.4z M107,139.1c0,7.3-3.9,11.5-10.9,11.5c-7.1,0-10.9-4.2-10.9-11.5v-23.9
		c0-7.3,3.9-11.5,10.9-11.5c7.1,0,10.9,4.2,10.9,11.5V139.1z M101.6,89c-7.1,0-10.8-4.2-10.8-11.5V42.5h7.2v35.4
		c0,3.3,1.4,4.5,3.7,4.5c2.3,0,3.7-1.2,3.7-4.5V42.5h6.8v34.9C112.4,84.8,108.7,89,101.6,89z M139.8,150.1h-9.6l-2.6-24.4l-2.6,24.4
		h-9.9l-5.1-45.9h7l3.9,36.2l3.5-36.2h6.9l3.6,36.4l3.7-36.4h6.3L139.8,150.1z"/>
</g>
</svg>
